<svg width="192" height="192" viewBox="0 0 192 192" xmlns="http://www.w3.org/2000/svg">
  <defs>
    <linearGradient id="bgGradient" x1="0%" y1="0%" x2="100%" y2="100%">
      <stop offset="0%" style="stop-color:#4F46E5;stop-opacity:1" />
      <stop offset="100%" style="stop-color:#7C3AED;stop-opacity:1" />
    </linearGradient>
    <linearGradient id="screenGradient" x1="0%" y1="0%" x2="100%" y2="100%">
      <stop offset="0%" style="stop-color:#1F2937;stop-opacity:1" />
      <stop offset="100%" style="stop-color:#374151;stop-opacity:1" />
    </linearGradient>
    <filter id="shadow" x="-50%" y="-50%" width="200%" height="200%">
      <feDropShadow dx="2" dy="2" stdDeviation="3" flood-color="#000000" flood-opacity="0.3"/>
    </filter>
  </defs>
  
  <!-- Background rounded rectangle -->
  <rect x="16" y="16" width="160" height="160" rx="32" ry="32" fill="url(#bgGradient)" filter="url(#shadow)"/>
  
  <!-- Screen -->
  <rect x="36" y="36" width="120" height="32" rx="4" ry="4" fill="url(#screenGradient)"/>
  
  <!-- Display text -->
  <text x="148" y="56" font-family="Arial, sans-serif" font-size="16" font-weight="bold" fill="#10B981" text-anchor="end">123.45</text>
  
  <!-- Button grid -->
  <!-- Row 1 -->
  <rect x="36" y="84" width="24" height="20" rx="4" fill="#EF4444"/>
  <text x="48" y="96" font-family="Arial, sans-serif" font-size="12" font-weight="bold" fill="white" text-anchor="middle">C</text>
  
  <rect x="68" y="84" width="24" height="20" rx="4" fill="#F59E0B"/>
  <text x="80" y="96" font-family="Arial, sans-serif" font-size="12" font-weight="bold" fill="white" text-anchor="middle">±</text>
  
  <rect x="100" y="84" width="24" height="20" rx="4" fill="#F59E0B"/>
  <text x="112" y="96" font-family="Arial, sans-serif" font-size="12" font-weight="bold" fill="white" text-anchor="middle">%</text>
  
  <rect x="132" y="84" width="24" height="20" rx="4" fill="#F59E0B"/>
  <text x="144" y="96" font-family="Arial, sans-serif" font-size="12" font-weight="bold" fill="white" text-anchor="middle">÷</text>
  
  <!-- Row 2 -->
  <rect x="36" y="112" width="24" height="20" rx="4" fill="#6B7280"/>
  <text x="48" y="124" font-family="Arial, sans-serif" font-size="12" font-weight="bold" fill="white" text-anchor="middle">7</text>
  
  <rect x="68" y="112" width="24" height="20" rx="4" fill="#6B7280"/>
  <text x="80" y="124" font-family="Arial, sans-serif" font-size="12" font-weight="bold" fill="white" text-anchor="middle">8</text>
  
  <rect x="100" y="112" width="24" height="20" rx="4" fill="#6B7280"/>
  <text x="112" y="124" font-family="Arial, sans-serif" font-size="12" font-weight="bold" fill="white" text-anchor="middle">9</text>
  
  <rect x="132" y="112" width="24" height="20" rx="4" fill="#F59E0B"/>
  <text x="144" y="124" font-family="Arial, sans-serif" font-size="12" font-weight="bold" fill="white" text-anchor="middle">×</text>
  
  <!-- Row 3 -->
  <rect x="36" y="140" width="24" height="20" rx="4" fill="#6B7280"/>
  <text x="48" y="152" font-family="Arial, sans-serif" font-size="12" font-weight="bold" fill="white" text-anchor="middle">4</text>
  
  <rect x="68" y="140" width="24" height="20" rx="4" fill="#6B7280"/>
  <text x="80" y="152" font-family="Arial, sans-serif" font-size="12" font-weight="bold" fill="white" text-anchor="middle">5</text>
  
  <rect x="100" y="140" width="24" height="20" rx="4" fill="#6B7280"/>
  <text x="112" y="152" font-family="Arial, sans-serif" font-size="12" font-weight="bold" fill="white" text-anchor="middle">6</text>
  
  <rect x="132" y="140" width="24" height="20" rx="4" fill="#F59E0B"/>
  <text x="144" y="152" font-family="Arial, sans-serif" font-size="12" font-weight="bold" fill="white" text-anchor="middle">-</text>
</svg>